<?xml version="1.0" encoding="UTF-8" standalone="no" ?>
<!DOCTYPE svg PUBLIC "-//W3C//DTD SVG 1.1//EN" "http://www.w3.org/Graphics/SVG/1.1/DTD/svg11.dtd">
<svg xmlns="http://www.w3.org/2000/svg" xmlns:xlink="http://www.w3.org/1999/xlink" version="1.1" width="1080" height="1080" viewBox="0 0 1080 1080" xml:space="preserve">
<desc>Created with Fabric.js 5.2.4</desc>
<defs>
</defs>
<g transform="matrix(1 0 0 1 540 540)" id="25e6bb4b-aea7-48ad-b16a-f06db9343192"  >
<rect style="stroke: none; stroke-width: 1; stroke-dasharray: none; stroke-linecap: butt; stroke-dashoffset: 0; stroke-linejoin: miter; stroke-miterlimit: 4; fill: rgb(255,255,255); fill-rule: nonzero; opacity: 1; visibility: hidden;" vector-effect="non-scaling-stroke"  x="-540" y="-540" rx="0" ry="0" width="1080" height="1080" />
</g>
<g transform="matrix(1 0 0 1 540 540)" id="bf110db0-e776-4192-9c71-b7cb92386e7c"  >
</g>
<g transform="matrix(1 0 0 1 540 540)"  >
<g style="" vector-effect="non-scaling-stroke"   >
		<g transform="matrix(0.13 0 0 -0.13 -0.13 -26.53)"  >
<path style="stroke: none; stroke-width: 1; stroke-dasharray: none; stroke-linecap: butt; stroke-dashoffset: 0; stroke-linejoin: miter; stroke-miterlimit: 4; fill: rgb(0,0,0); fill-rule: nonzero; opacity: 1;" vector-effect="non-scaling-stroke"  transform=" translate(-1518.09, -850.87)" d="M 1571 1054 C 1554 1040 1540 1022 1540 1015 C 1540 995 1516 990 1425 990 C 1369 990 1339 986 1333 978 C 1329 971 1323 935 1319 899 C 1315 850 1308 828 1292 812 C 1261 781 1261 696 1290 680 C 1301 674 1308 665 1305 661 C 1297 647 1323 633 1370 626 C 1412 620 1419 622 1453 652 C 1473 671 1490 693 1490 703 C 1490 712 1498 720 1508 721 C 1517 721 1560 722 1603 723 C 1697 725 1710 737 1710 817 C 1710 859 1714 871 1730 880 C 1752 892 1774 962 1766 994 C 1763 1005 1748 1029 1732 1046 C 1709 1072 1696 1077 1653 1078 C 1611 1080 1596 1076 1571 1054 z M 1650 1059 C 1650 1052 1659 1050 1671 1053 C 1702 1061 1720 1051 1720 1024 C 1720 1009 1726 1000 1735 1000 C 1743 1000 1750 991 1750 980 C 1750 969 1745 960 1740 960 C 1734 960 1731 945 1732 928 C 1735 901 1731 895 1715 895 C 1697 895 1695 887 1692 818 L 1689 740 L 1579 740 C 1480 740 1469 738 1474 724 C 1484 698 1471 668 1453 674 C 1444 678 1436 673 1433 661 C 1427 638 1404 626 1394 641 C 1391 647 1375 648 1359 645 C 1334 639 1329 642 1320 664 C 1315 678 1304 690 1295 690 C 1278 690 1275 713 1290 740 C 1297 753 1297 761 1290 765 C 1283 769 1283 778 1290 791 C 1296 802 1305 808 1310 805 C 1328 794 1342 843 1337 895 C 1329 976 1335 980 1444 973 C 1544 967 1581 973 1562 992 C 1546 1008 1566 1041 1586 1033 C 1596 1029 1603 1035 1607 1049 C 1612 1071 1650 1079 1650 1059 z" stroke-linecap="round" />
</g>
		<g transform="matrix(0.13 0 0 -0.13 -0.31 -30.43)"  >
<path style="stroke: none; stroke-width: 1; stroke-dasharray: none; stroke-linecap: butt; stroke-dashoffset: 0; stroke-linejoin: miter; stroke-miterlimit: 4; fill: rgb(0,0,0); fill-rule: nonzero; opacity: 1;" vector-effect="non-scaling-stroke"  transform=" translate(-1516.77, -880.09)" d="M 1617 993 C 1602 979 1612 971 1648 967 C 1668 965 1610 963 1518 962 L 1350 960 L 1352 898 L 1354 835 L 1357 893 L 1361 951 L 1513 948 L 1665 945 L 1665 852 C 1665 802 1668 760 1672 760 C 1679 760 1688 966 1681 988 C 1678 1001 1628 1005 1617 993 z" stroke-linecap="round" />
</g>
		<g transform="matrix(0.13 0 0 -0.13 -17.38 -35.19)"  >
<path style="stroke: none; stroke-width: 1; stroke-dasharray: none; stroke-linecap: butt; stroke-dashoffset: 0; stroke-linejoin: miter; stroke-miterlimit: 4; fill: rgb(0,0,0); fill-rule: nonzero; opacity: 1;" vector-effect="non-scaling-stroke"  transform=" translate(-1388.73, -915.78)" d="M 1370 914 C 1370 905 1377 900 1387 902 C 1412 907 1415 930 1391 930 C 1379 930 1370 924 1370 914 z" stroke-linecap="round" />
</g>
		<g transform="matrix(0.13 0 0 -0.13 -0.46 -27.03)"  >
<path style="stroke: none; stroke-width: 1; stroke-dasharray: none; stroke-linecap: butt; stroke-dashoffset: 0; stroke-linejoin: miter; stroke-miterlimit: 4; fill: rgb(0,0,0); fill-rule: nonzero; opacity: 1;" vector-effect="non-scaling-stroke"  transform=" translate(-1515.62, -854.55)" d="M 1467 902 C 1431 862 1461 790 1513 790 C 1542 790 1580 829 1580 858 C 1580 910 1501 940 1467 902 z M 1551 889 C 1562 878 1569 862 1566 853 C 1563 845 1560 834 1560 829 C 1560 812 1510 799 1489 810 C 1461 825 1454 867 1475 890 C 1498 916 1525 915 1551 889 z" stroke-linecap="round" />
</g>
		<g transform="matrix(0.13 0 0 -0.13 -1.15 -27.11)"  >
<path style="stroke: none; stroke-width: 1; stroke-dasharray: none; stroke-linecap: butt; stroke-dashoffset: 0; stroke-linejoin: miter; stroke-miterlimit: 4; fill: rgb(0,0,0); fill-rule: nonzero; opacity: 1;" vector-effect="non-scaling-stroke"  transform=" translate(-1510.46, -855.15)" d="M 1500 875 C 1490 863 1491 859 1506 853 C 1523 847 1523 846 1505 840 C 1488 834 1488 833 1504 827 C 1515 823 1523 826 1527 837 C 1531 847 1528 856 1521 858 C 1511 861 1510 864 1520 870 C 1528 875 1528 880 1522 884 C 1517 887 1507 883 1500 875 z" stroke-linecap="round" />
</g>
		<g transform="matrix(0.13 0 0 -0.13 -17.81 -11.61)"  >
<path style="stroke: none; stroke-width: 1; stroke-dasharray: none; stroke-linecap: butt; stroke-dashoffset: 0; stroke-linejoin: miter; stroke-miterlimit: 4; fill: rgb(0,0,0); fill-rule: nonzero; opacity: 1;" vector-effect="non-scaling-stroke"  transform=" translate(-1385.54, -738.95)" d="M 1345 807 C 1339 795 1328 785 1319 786 C 1297 788 1300 720 1323 697 C 1333 687 1338 675 1335 670 C 1331 664 1341 663 1358 666 C 1376 670 1390 667 1395 660 C 1400 652 1407 655 1417 669 C 1425 681 1438 690 1446 690 C 1457 690 1459 696 1455 710 C 1451 722 1454 738 1461 746 C 1471 758 1469 764 1452 776 C 1440 784 1430 798 1430 806 C 1430 816 1423 819 1405 814 C 1391 811 1374 813 1367 818 C 1358 826 1352 823 1345 807 z M 1420 780 C 1444 756 1446 723 1423 698 C 1402 674 1365 675 1340 700 C 1314 726 1315 748 1342 777 C 1368 805 1394 806 1420 780 z" stroke-linecap="round" />
</g>
		<g transform="matrix(0.13 0 0 -0.13 6.25 -15.02)"  >
<path style="stroke: none; stroke-width: 1; stroke-dasharray: none; stroke-linecap: butt; stroke-dashoffset: 0; stroke-linejoin: miter; stroke-miterlimit: 4; fill: rgb(0,0,0); fill-rule: nonzero; opacity: 1;" vector-effect="non-scaling-stroke"  transform=" translate(-1565.95, -764.51)" d="M 1483 763 C 1490 756 1642 759 1649 766 C 1651 768 1614 770 1565 770 C 1516 770 1480 767 1483 763 z" stroke-linecap="round" />
</g>
		<g transform="matrix(0.13 0 0 -0.13 0 31.72)"  >
<path style="stroke: none; stroke-width: 1; stroke-dasharray: none; stroke-linecap: butt; stroke-dashoffset: 0; stroke-linejoin: miter; stroke-miterlimit: 4; fill: rgb(0,0,0); fill-rule: nonzero; opacity: 1;" vector-effect="non-scaling-stroke"  transform=" translate(-1519.09, -413.97)" d="M 1345 600 C 1329 596 1305 588 1294 582 C 1266 567 1232 493 1222 428 C 1217 388 1210 374 1196 372 C 1179 368 1178 372 1184 401 C 1203 495 1203 550 1185 570 C 1161 597 1124 595 1106 568 C 1088 538 1050 374 1050 323 C 1050 268 1079 242 1145 239 C 1173 238 1200 233 1207 228 C 1215 222 1222 226 1230 239 C 1243 264 1262 266 1295 244 C 1324 225 1366 232 1393 261 C 1415 285 1423 285 1445 260 C 1483 218 1525 242 1539 314 C 1546 344 1553 350 1608 368 L 1640 378 L 1640 325 C 1640 269 1649 256 1692 245 C 1713 240 1722 243 1732 259 C 1748 286 1758 285 1787 258 C 1843 205 1871 235 1896 373 C 1903 418 1910 456 1910 457 C 1910 458 1923 466 1939 474 C 1954 482 1973 503 1980 521 C 1993 551 1992 554 1966 577 C 1940 599 1933 600 1828 595 C 1743 592 1713 587 1699 574 C 1681 558 1679 558 1662 573 C 1648 586 1625 590 1573 590 C 1512 590 1501 587 1480 565 L 1456 540 L 1431 563 C 1387 602 1376 607 1345 600 z M 1159 560 C 1177 551 1176 546 1155 440 L 1133 330 L 1186 330 C 1242 330 1243 329 1234 294 C 1229 274 1223 273 1157 278 C 1117 281 1082 287 1079 292 C 1075 299 1110 493 1129 568 C 1131 572 1142 570 1159 560 z M 1406 549 C 1436 515 1433 389 1400 330 C 1369 275 1333 259 1296 283 C 1265 304 1246 369 1253 425 C 1260 474 1296 557 1313 563 C 1343 576 1388 569 1406 549 z M 1650 537 L 1650 503 L 1596 508 C 1547 512 1542 510 1537 489 C 1524 441 1527 437 1575 444 L 1620 451 L 1620 421 C 1620 390 1620 390 1565 390 L 1511 390 L 1508 333 C 1505 278 1504 275 1481 278 C 1467 279 1454 283 1451 285 C 1449 288 1458 350 1471 423 L 1496 555 L 1571 561 C 1612 564 1646 567 1648 568 C 1649 569 1650 555 1650 537 z M 1757 526 C 1755 509 1744 445 1734 383 C 1715 272 1715 271 1690 277 C 1676 280 1664 284 1662 285 C 1660 287 1708 535 1715 557 C 1717 563 1728 566 1740 563 C 1758 558 1761 551 1757 526 z M 1960 558 C 1959 516 1949 504 1916 508 L 1883 512 L 1864 390 C 1845 269 1845 269 1820 275 C 1806 279 1793 283 1791 285 C 1789 287 1799 338 1812 397 L 1837 505 L 1808 508 C 1786 511 1780 516 1780 535 C 1780 558 1784 559 1853 563 C 1892 564 1933 567 1943 568 C 1952 569 1960 564 1960 558 z" stroke-linecap="round" />
</g>
		<g transform="matrix(0.13 0 0 -0.13 -23.79 31.01)"  >
<path style="stroke: none; stroke-width: 1; stroke-dasharray: none; stroke-linecap: butt; stroke-dashoffset: 0; stroke-linejoin: miter; stroke-miterlimit: 4; fill: rgb(0,0,0); fill-rule: nonzero; opacity: 1;" vector-effect="non-scaling-stroke"  transform=" translate(-1340.68, -419.3)" d="M 1327 491 C 1295 436 1296 320 1329 320 C 1360 320 1392 458 1371 498 C 1356 527 1348 526 1327 491 z" stroke-linecap="round" />
</g>
</g>
</g>
</svg>