<?xml version="1.0" standalone="no"?>
<!DOCTYPE svg PUBLIC "-//W3C//DTD SVG 20010904//EN"
 "http://www.w3.org/TR/2001/REC-SVG-20010904/DTD/svg10.dtd">
<svg version="1.0" xmlns="http://www.w3.org/2000/svg"
 width="300.000000pt" height="127.000000pt" viewBox="0 0 300.000000 127.000000"
 preserveAspectRatio="xMidYMid meet">
<metadata>
Created by potrace 1.10, written by Peter Selinger 2001-2011
</metadata>
<g transform="translate(0.000000,127.000000) scale(0.100000,-0.100000)"
fill="#000000" stroke="none">
<path d="M1571 1054 c-17 -14 -31 -32 -31 -39 0 -20 -24 -25 -115 -25 -56 0
-86 -4 -92 -12 -4 -7 -10 -43 -14 -79 -4 -49 -11 -71 -27 -87 -31 -31 -31
-116 -2 -132 11 -6 18 -15 15 -19 -8 -14 18 -28 65 -35 42 -6 49 -4 83 26 20
19 37 41 37 51 0 9 8 17 18 18 9 0 52 1 95 2 94 2 107 14 107 94 0 42 4 54 20
63 22 12 44 82 36 114 -3 11 -18 35 -34 52 -23 26 -36 31 -79 32 -42 2 -57 -2
-82 -24z m79 5 c0 -7 9 -9 21 -6 31 8 49 -2 49 -29 0 -15 6 -24 15 -24 8 0 15
-9 15 -20 0 -11 -5 -20 -10 -20 -6 0 -9 -15 -8 -32 3 -27 -1 -33 -17 -33 -18
0 -20 -8 -23 -77 l-3 -78 -110 0 c-99 0 -110 -2 -105 -16 10 -26 -3 -56 -21
-50 -9 4 -17 -1 -20 -13 -6 -23 -29 -35 -39 -20 -3 6 -19 7 -35 4 -25 -6 -30
-3 -39 19 -5 14 -16 26 -25 26 -17 0 -20 23 -5 50 7 13 7 21 0 25 -7 4 -7 13
0 26 6 11 15 17 20 14 18 -11 32 38 27 90 -8 81 -2 85 107 78 100 -6 137 0
118 19 -16 16 4 49 24 41 10 -4 17 2 21 16 5 22 43 30 43 10z"/>
<path d="M1617 993 c-15 -14 -5 -22 31 -26 20 -2 -38 -4 -130 -5 l-168 -2 2
-62 2 -63 3 58 4 58 152 -3 152 -3 0 -93 c0 -50 3 -92 7 -92 7 0 16 206 9 228
-3 13 -53 17 -64 5z"/>
<path d="M1370 914 c0 -9 7 -14 17 -12 25 5 28 28 4 28 -12 0 -21 -6 -21 -16z"/>
<path d="M1467 902 c-36 -40 -6 -112 46 -112 29 0 67 39 67 68 0 52 -79 82
-113 44z m84 -13 c11 -11 18 -27 15 -36 -3 -8 -6 -19 -6 -24 0 -17 -50 -30
-71 -19 -28 15 -35 57 -14 80 23 26 50 25 76 -1z"/>
<path d="M1500 875 c-10 -12 -9 -16 6 -22 17 -6 17 -7 -1 -13 -17 -6 -17 -7
-1 -13 11 -4 19 -1 23 10 4 10 1 19 -6 21 -10 3 -11 6 -1 12 8 5 8 10 2 14 -5
3 -15 -1 -22 -9z"/>
<path d="M1345 807 c-6 -12 -17 -22 -26 -21 -22 2 -19 -66 4 -89 10 -10 15
-22 12 -27 -4 -6 6 -7 23 -4 18 4 32 1 37 -6 5 -8 12 -5 22 9 8 12 21 21 29
21 11 0 13 6 9 20 -4 12 -1 28 6 36 10 12 8 18 -9 30 -12 8 -22 22 -22 30 0
10 -7 13 -25 8 -14 -3 -31 -1 -38 4 -9 8 -15 5 -22 -11z m75 -27 c24 -24 26
-57 3 -82 -21 -24 -58 -23 -83 2 -26 26 -25 48 2 77 26 28 52 29 78 3z"/>
<path d="M1483 763 c7 -7 159 -4 166 3 2 2 -35 4 -84 4 -49 0 -85 -3 -82 -7z"/>
<path d="M1345 600 c-16 -4 -40 -12 -51 -18 -28 -15 -62 -89 -72 -154 -5 -40
-12 -54 -26 -56 -17 -4 -18 0 -12 29 19 94 19 149 1 169 -24 27 -61 25 -79 -2
-18 -30 -56 -194 -56 -245 0 -55 29 -81 95 -84 28 -1 55 -6 62 -11 8 -6 15 -2
23 11 13 25 32 27 65 5 29 -19 71 -12 98 17 22 24 30 24 52 -1 38 -42 80 -18
94 54 7 30 14 36 69 54 l32 10 0 -53 c0 -56 9 -69 52 -80 21 -5 30 -2 40 14
16 27 26 26 55 -1 56 -53 84 -23 109 115 7 45 14 83 14 84 0 1 13 9 29 17 15
8 34 29 41 47 13 30 12 33 -14 56 -26 22 -33 23 -138 18 -85 -3 -115 -8 -129
-21 -18 -16 -20 -16 -37 -1 -14 13 -37 17 -89 17 -61 0 -72 -3 -93 -25 l-24
-25 -25 23 c-44 39 -55 44 -86 37z m-186 -40 c18 -9 17 -14 -4 -120 l-22 -110
53 0 c56 0 57 -1 48 -36 -5 -20 -11 -21 -77 -16 -40 3 -75 9 -78 14 -4 7 31
201 50 276 2 4 13 2 30 -8z m247 -11 c30 -34 27 -160 -6 -219 -31 -55 -67 -71
-104 -47 -31 21 -50 86 -43 142 7 49 43 132 60 138 30 13 75 6 93 -14z m244
-12 l0 -34 -54 5 c-49 4 -54 2 -59 -19 -13 -48 -10 -52 38 -45 l45 7 0 -30 c0
-31 0 -31 -55 -31 l-54 0 -3 -57 c-3 -55 -4 -58 -27 -55 -14 1 -27 5 -30 7 -2
3 7 65 20 138 l25 132 75 6 c41 3 75 6 77 7 1 1 2 -13 2 -31z m107 -11 c-2
-17 -13 -81 -23 -143 -19 -111 -19 -112 -44 -106 -14 3 -26 7 -28 8 -2 2 46
250 53 272 2 6 13 9 25 6 18 -5 21 -12 17 -37z m203 32 c-1 -42 -11 -54 -44
-50 l-33 4 -19 -122 c-19 -121 -19 -121 -44 -115 -14 4 -27 8 -29 10 -2 2 8
53 21 112 l25 108 -29 3 c-22 3 -28 8 -28 27 0 23 4 24 73 28 39 1 80 4 90 5
9 1 17 -4 17 -10z"/>
<path d="M1327 491 c-32 -55 -31 -171 2 -171 31 0 63 138 42 178 -15 29 -23
28 -44 -7z"/>
</g>
</svg>
